<svg width="130" height="97" viewBox="0 0 130 97" fill="none" xmlns="http://www.w3.org/2000/svg">
<path d="M129 48.5C129 61.5054 121.937 73.3576 110.364 81.9932C98.7903 90.6289 82.755 96 65 96C47.245 96 31.2097 90.6289 19.6361 81.9932C8.06256 73.3576 1 61.5054 1 48.5C1 35.4946 8.06256 23.6424 19.6361 15.0068C31.2097 6.37108 47.245 1 65 1C82.755 1 98.7903 6.37108 110.364 15.0068C121.937 23.6424 129 35.4946 129 48.5Z" fill="white" stroke="black" stroke-width="2"/>
<circle cx="31" cy="49" r="5" fill="#1E1E1E"/>
<circle cx="98" cy="49" r="5" fill="#1E1E1E"/>
<line x1="31" y1="53" x2="98" y2="53" stroke="black" stroke-width="2"/>
</svg>
