<svg width="714" height="608" viewBox="0 0 714 608" fill="none" xmlns="http://www.w3.org/2000/svg">
<path d="M674.1 0C720.975 0 758.725 37.9 760.95 82.55V800L671.75 724.225L622.8 679.7L569.275 633.075L591.55 706.525H123.7C76.95 706.525 39.075 671.1 39.075 623.975V82.7C39.075 38.05 76.975 0.15 123.85 0.15H673.85L674.1 0ZM470.175 189.45H469.125L462.35 196.1C531.5 216.15 564.95 247.4 564.95 247.4C520.425 225.125 480.175 213.925 440.075 209.375C411.175 204.95 382.125 207.3 357.65 209.375H350.875C335.25 209.375 301.925 216.15 257.25 233.975C241.75 240.75 232.775 245.175 232.775 245.175C232.775 245.175 266.1 211.7 339.8 193.875L335.25 189.45C335.25 189.45 279.525 187.225 219.375 231.775C219.375 231.775 159.225 336.6 159.225 465.75C159.225 465.75 192.55 523.7 283.975 525.9C283.975 525.9 297.375 508.2 310.8 492.575C259.5 476.95 239.45 445.7 239.45 445.7C239.45 445.7 244 447.925 250.65 452.35H252.6C253.65 452.35 254.175 452.875 254.675 453.4V453.65C255.2 454.175 255.725 454.55 256.625 454.55C267.7 459.1 278.625 463.525 287.625 467.95C303.25 474.6 323.175 481.35 347.65 485.8C378.65 490.35 414.175 492.45 454.675 485.8C474.6 481.25 494.65 476.95 514.7 467.95C527.6 461.3 543.6 454.675 561.175 443.35C561.175 443.35 541.25 474.6 487.725 490.225C498.675 505.725 514.15 523.55 514.15 523.55C605.675 521.475 641.225 463.525 643.175 466C643.175 336.975 582.625 232.025 582.625 232.025C528.2 191.525 477.15 189.975 468.175 189.975L470 189.325L470.175 189.45ZM475.775 336.6C499.225 336.6 518.1 356.525 518.1 381C518.1 405.75 499.1 425.65 475.775 425.65C452.325 425.65 433.45 405.725 433.45 381.25C433.45 356.5 452.45 336.6 475.775 336.6ZM324.35 336.6C347.65 336.6 366.55 356.525 366.55 381C366.55 405.75 347.55 425.65 324.225 425.65C300.775 425.65 281.775 405.725 281.775 381.25C281.775 356.5 300.775 336.6 324.225 336.6H324.35Z" fill="black"/>
</svg>
