<svg width="1440" height="760" viewBox="0 0 1440 760" fill="none" xmlns="http://www.w3.org/2000/svg">
<rect width="1440" height="760" fill="white"/>
<g clip-path="url(#clip0_49_56)">
<path d="M1375.93 218.904L1375.93 218.904L1376.01 218.908C1382.95 219.215 1390.09 219.531 1397.31 222.047C1404.57 224.579 1411.89 229.326 1419.19 238.459L1424.32 244.873V148.71C1414.94 145.68 1407.4 146.211 1400.83 148.501C1394.16 150.827 1388.46 154.974 1382.79 159.145L1382.75 159.179C1376.41 163.847 1369.9 168.649 1361.67 171.241C1353.41 173.846 1343.45 174.21 1330.23 170.081C1329.21 169.766 1328.08 170.157 1327.3 171.236C1326.53 172.328 1326.29 173.895 1326.7 175.294C1333.04 196.423 1340.87 207.09 1349.29 212.596C1357.72 218.108 1366.82 218.511 1375.93 218.904ZM1432.38 143.5V292.5H1438.44V143.5H1432.38Z" fill="#E22626" stroke="black"/>
</g>
<path d="M1288.62 297H1440V760H699V687.373H800V606.171H900.422V525.474H1016.83V453.351H1148.23V381.732H1288.62V297Z" fill="#D9D9D9"/>
<rect x="1429" y="142" width="8" height="154" fill="black"/>
<defs>
<clipPath id="clip0_49_56">
<rect width="120" height="150" fill="white" transform="matrix(-1 0 0 1 1429 138)"/>
</clipPath>
</defs>
</svg>
