<svg width="1440" height="760" viewBox="0 0 1440 760" fill="none" xmlns="http://www.w3.org/2000/svg">
<g clip-path="url(#clip0_29_5)">
<rect width="1440" height="760" fill="white"/>
<path d="M1308.92 307.594C1286.96 309.623 1281.61 316.891 1280.83 337.594" stroke="black" stroke-width="2"/>
<path d="M1309.2 187H1441.2V307H1309.2V187Z" fill="white"/>
<path d="M1309.2 188H1441.2V186H1309.2V188ZM1441.2 306H1309.2V308H1441.2V306Z" fill="black"/>
<path d="M1038 590H1170V712H1038V590Z" fill="white"/>
<path d="M1038 591H1170V589H1038V591ZM1170 711H1038V713H1170V711Z" fill="black"/>
<path d="M1181.03 542.561L1182.05 336.327L1280.14 337.077L1279.13 543.311L1181.03 542.561Z" fill="white"/>
<path d="M1182.03 542.569L1183.05 336.335L1181.05 336.32L1180.03 542.553L1182.03 542.569ZM1279.15 337.069L1278.13 543.303L1280.13 543.319L1281.14 337.085L1279.15 337.069Z" fill="black"/>
<path d="M1309.6 186.834C1184.95 189.442 1184.64 212.338 1182.97 335.939" stroke="black" stroke-width="2"/>
<path d="M1180.81 542.835C1180.81 570.335 1180.77 581.177 1169.57 589.835" stroke="black" stroke-width="2"/>
<path d="M1279.11 535.835C1276.67 661.652 1256.42 706.341 1167.16 711.834" stroke="black" stroke-width="2"/>
<path d="M132 589H0V711H132V589Z" fill="white"/>
<path d="M132 590H0V588H132V590ZM0 710H132V712H0V710Z" fill="black"/>
<mask id="path-13-inside-1_29_5" fill="white">
<path d="M132 589H1042V711H132V589Z"/>
</mask>
<path d="M132 589H1042V711H132V589Z" fill="white"/>
<path d="M132 591H1042V587H132V591ZM1042 709H132V713H1042V709Z" fill="black" mask="url(#path-13-inside-1_29_5)"/>
</g>
<defs>
<clipPath id="clip0_29_5">
<rect width="1440" height="760" fill="white"/>
</clipPath>
</defs>
</svg>
