<svg width="1440" height="760" viewBox="0 0 1440 760" fill="none" xmlns="http://www.w3.org/2000/svg">
<g clip-path="url(#clip0_29_5)">
<rect width="1440" height="760" fill="white"/>
<path d="M1308.92 307.594C1286.96 309.623 1281.61 316.891 1280.83 337.594" stroke="black" stroke-width="2"/>
<path d="M1309.2 187H1441.2V307H1309.2V187Z" fill="white"/>
<path d="M1309.2 188H1441.2V186H1309.2V188ZM1441.2 306H1309.2V308H1441.2V306Z" fill="black"/>
<path d="M0 590H1170V712H0V590Z" fill="white"/>
<path d="M0 591H1170V589H0V591ZM1170 711H0V713H1170V711Z" fill="black"/>
<path d="M1181.03 542.561L1182.05 336.327L1280.14 337.077L1279.13 543.311L1181.03 542.561Z" fill="white"/>
<path d="M1182.03 542.569L1183.05 336.335L1181.05 336.32L1180.03 542.553L1182.03 542.569ZM1279.15 337.069L1278.13 543.303L1280.13 543.319L1281.14 337.085L1279.15 337.069Z" fill="black"/>
<path d="M1309.6 186.834C1184.95 189.442 1184.64 212.338 1182.97 335.939" stroke="black" stroke-width="2"/>
<path d="M1180.81 542.835C1180.81 570.335 1180.77 581.177 1169.57 589.835" stroke="black" stroke-width="2"/>
<path d="M1279.11 535.835C1276.67 661.652 1256.42 706.341 1167.16 711.834" stroke="black" stroke-width="2"/>
<path d="M1388.94 313.493C1390.31 312.936 1391.77 312.44 1393.32 312.002L1396.19 314.867C1387.74 316.882 1382.54 320.475 1382.54 323.813C1382.54 328.806 1394.18 334.369 1410.89 334.369C1427.61 334.369 1439.25 328.806 1439.25 323.813C1439.25 320.475 1434.05 316.883 1425.6 314.867L1428.47 312.002C1430.02 312.44 1431.48 312.936 1432.84 313.493C1439.23 316.104 1442.75 319.769 1442.75 323.813C1442.75 327.857 1439.23 331.522 1432.84 334.133C1426.95 336.541 1419.16 337.867 1410.89 337.867C1402.63 337.867 1394.83 336.541 1388.94 334.133C1382.56 331.522 1379.04 327.857 1379.04 323.813C1379.04 319.769 1382.56 316.104 1388.94 313.493Z" fill="black"/>
<path d="M1358.51 267.886L1409.15 253.083V249.396C1406.82 248.654 1405.13 246.471 1405.13 243.9C1405.13 240.72 1407.71 238.133 1410.89 238.133C1414.07 238.133 1416.66 240.72 1416.66 243.9C1416.66 246.471 1414.97 248.653 1412.64 249.396V324.934C1412.64 325.901 1411.86 326.683 1410.89 326.683C1409.93 326.683 1409.15 325.9 1409.15 324.934V286.045L1358.51 271.243C1357.76 271.025 1357.25 270.341 1357.25 269.564C1357.25 268.787 1357.76 268.103 1358.51 267.886ZM1410.89 241.631C1409.64 241.631 1408.62 242.649 1408.62 243.9C1408.62 245.152 1409.64 246.17 1410.89 246.17C1412.15 246.17 1413.16 245.152 1413.16 243.9C1413.16 242.649 1412.15 241.631 1410.89 241.631ZM1409.15 282.401V256.728L1365.23 269.564L1409.15 282.401Z" fill="black"/>
</g>
<defs>
<clipPath id="clip0_29_5">
<rect width="1440" height="760" fill="white"/>
</clipPath>
</defs>
</svg>
