<svg width="595" height="626" viewBox="0 0 595 626" fill="none" xmlns="http://www.w3.org/2000/svg">
<path d="M463.919 173.594C441.962 175.623 436.606 182.891 435.833 203.594" stroke="black" stroke-width="2"/>
<path d="M464.2 53H596.2V173H464.2V53Z" fill="white"/>
<path d="M464.2 54H596.2V52H464.2V54ZM596.2 172H464.2V174H596.2V172Z" fill="black"/>
<path d="M193 456H325V578H193V456Z" fill="white"/>
<path d="M193 457H325V455H193V457ZM325 577H193V579H325V577Z" fill="black"/>
<path d="M336.035 408.561L337.05 202.327L435.145 203.077L434.13 409.311L336.035 408.561Z" fill="white"/>
<path d="M337.035 408.569L338.05 202.335L336.05 202.32L335.035 408.553L337.035 408.569ZM434.145 203.069L433.13 409.303L435.13 409.319L436.145 203.085L434.145 203.069Z" fill="black"/>
<path d="M464.596 52.8344C339.945 55.4417 339.636 78.3377 337.968 201.939" stroke="black" stroke-width="2"/>
<path d="M335.805 408.835C335.805 436.335 335.772 447.177 324.571 455.835" stroke="black" stroke-width="2"/>
<path d="M434.107 401.835C431.673 527.652 411.422 572.341 322.164 577.834" stroke="black" stroke-width="2"/>
<path d="M193.663 578.333C175.471 576.12 170.453 585.83 171.997 625.333" stroke="black" stroke-width="2"/>
<path d="M193.512 455.569C45.8595 455.569 45.8595 490.834 45.8595 625.569" stroke="black" stroke-width="2"/>
</svg>
